<svg xmlns="http://www.w3.org/2000/svg" xmlns:xlink="http://www.w3.org/1999/xlink" zoomAndPan="magnify" viewBox="37 53 502 180" preserveAspectRatio="xMidYMid meet" version="1.0"><defs><g/><clipPath id="3bf40ab8f6"><path d="M 41 165 L 535 165 L 535 169.460938 L 41 169.460938 Z M 41 165 " clip-rule="nonzero"/></clipPath></defs><g clip-path="url(#3bf40ab8f6)"><path fill="#0E1B2C" d="M 534.75 167.730469 C 534.75 167.828125 534.75 168.386719 534.28125 168.851562 C 534.136719 168.996094 533.964844 169.113281 533.777344 169.191406 C 533.582031 169.269531 533.371094 169.304688 533.164062 169.316406 C 532.34375 169.347656 531.527344 169.3125 530.707031 169.308594 L 141.726562 167.921875 L 42.824219 168.179688 C 42.171875 168.183594 41.773438 167.78125 41.703125 167.710938 C 41.558594 167.566406 41.441406 167.394531 41.363281 167.207031 C 41.324219 167.113281 41.109375 166.589844 41.367188 165.976562 C 41.402344 165.886719 41.617188 165.378906 42.214844 165.132812 C 42.40625 165.050781 42.621094 165.023438 42.828125 165.007812 C 43.21875 164.984375 43.609375 165.015625 44 165.019531 L 117.949219 165.585938 L 155.332031 165.769531 L 533.167969 166.140625 C 533.265625 166.140625 533.824219 166.144531 534.289062 166.609375 C 534.75 167.078125 534.75 167.636719 534.75 167.730469 Z M 534.75 167.730469 " fill-opacity="1" fill-rule="evenodd"/></g><g fill="#0E1B2C" fill-opacity="1"><g transform="translate(58.314304, 228.380137)"><g><path d="M 28.421875 0 L 20.734375 -10.796875 C 19.867188 -10.703125 18.972656 -10.65625 18.046875 -10.65625 L 9.03125 -10.65625 L 9.03125 0 L 5.46875 0 L 5.46875 -33.59375 L 18.046875 -33.59375 C 22.335938 -33.59375 25.695312 -32.566406 28.125 -30.515625 C 30.5625 -28.472656 31.78125 -25.660156 31.78125 -22.078125 C 31.78125 -19.453125 31.113281 -17.234375 29.78125 -15.421875 C 28.457031 -13.617188 26.5625 -12.316406 24.09375 -11.515625 L 32.296875 0 Z M 17.953125 -13.6875 C 21.273438 -13.6875 23.816406 -14.421875 25.578125 -15.890625 C 27.335938 -17.359375 28.21875 -19.421875 28.21875 -22.078125 C 28.21875 -24.796875 27.335938 -26.882812 25.578125 -28.34375 C 23.816406 -29.800781 21.273438 -30.53125 17.953125 -30.53125 L 9.03125 -30.53125 L 9.03125 -13.6875 Z M 17.953125 -13.6875 "/></g></g></g><g fill="#0E1B2C" fill-opacity="1"><g transform="translate(93.018246, 228.380137)"><g><path d="M 29.234375 -3.078125 L 29.234375 0 L 5.46875 0 L 5.46875 -33.59375 L 28.515625 -33.59375 L 28.515625 -30.53125 L 9.03125 -30.53125 L 9.03125 -18.578125 L 26.40625 -18.578125 L 26.40625 -15.546875 L 9.03125 -15.546875 L 9.03125 -3.078125 Z M 29.234375 -3.078125 "/></g></g></g><g fill="#0E1B2C" fill-opacity="1"><g transform="translate(125.130194, 228.380137)"><g><path d="M 12 -30.53125 L 0.1875 -30.53125 L 0.1875 -33.59375 L 27.359375 -33.59375 L 27.359375 -30.53125 L 15.546875 -30.53125 L 15.546875 0 L 12 0 Z M 12 -30.53125 "/></g></g></g><g fill="#0E1B2C" fill-opacity="1"><g transform="translate(152.010143, 228.380137)"><g><path d="M 19.015625 0.28125 C 14.660156 0.28125 11.265625 -0.960938 8.828125 -3.453125 C 6.398438 -5.953125 5.1875 -9.585938 5.1875 -14.359375 L 5.1875 -33.59375 L 8.734375 -33.59375 L 8.734375 -14.5 C 8.734375 -10.59375 9.613281 -7.675781 11.375 -5.75 C 13.132812 -3.832031 15.679688 -2.875 19.015625 -2.875 C 22.367188 -2.875 24.925781 -3.832031 26.6875 -5.75 C 28.445312 -7.675781 29.328125 -10.59375 29.328125 -14.5 L 29.328125 -33.59375 L 32.78125 -33.59375 L 32.78125 -14.359375 C 32.78125 -9.585938 31.570312 -5.953125 29.15625 -3.453125 C 26.738281 -0.960938 23.359375 0.28125 19.015625 0.28125 Z M 19.015625 0.28125 "/></g></g></g><g fill="#0E1B2C" fill-opacity="1"><g transform="translate(190.026074, 228.380137)"><g><path d="M 28.421875 0 L 20.734375 -10.796875 C 19.867188 -10.703125 18.972656 -10.65625 18.046875 -10.65625 L 9.03125 -10.65625 L 9.03125 0 L 5.46875 0 L 5.46875 -33.59375 L 18.046875 -33.59375 C 22.335938 -33.59375 25.695312 -32.566406 28.125 -30.515625 C 30.5625 -28.472656 31.78125 -25.660156 31.78125 -22.078125 C 31.78125 -19.453125 31.113281 -17.234375 29.78125 -15.421875 C 28.457031 -13.617188 26.5625 -12.316406 24.09375 -11.515625 L 32.296875 0 Z M 17.953125 -13.6875 C 21.273438 -13.6875 23.816406 -14.421875 25.578125 -15.890625 C 27.335938 -17.359375 28.21875 -19.421875 28.21875 -22.078125 C 28.21875 -24.796875 27.335938 -26.882812 25.578125 -28.34375 C 23.816406 -29.800781 21.273438 -30.53125 17.953125 -30.53125 L 9.03125 -30.53125 L 9.03125 -13.6875 Z M 17.953125 -13.6875 "/></g></g></g><g fill="#0E1B2C" fill-opacity="1"><g transform="translate(224.730016, 228.380137)"><g><path d="M 33.546875 -33.59375 L 33.546875 0 L 30.625 0 L 9.03125 -27.265625 L 9.03125 0 L 5.46875 0 L 5.46875 -33.59375 L 8.40625 -33.59375 L 30.046875 -6.34375 L 30.046875 -33.59375 Z M 33.546875 -33.59375 "/></g></g></g><g fill="#0E1B2C" fill-opacity="1"><g transform="translate(263.753954, 228.380137)"><g/></g></g><g fill="#0E1B2C" fill-opacity="1"><g transform="translate(276.329911, 228.380137)"><g><path d="M 12 -30.53125 L 0.1875 -30.53125 L 0.1875 -33.59375 L 27.359375 -33.59375 L 27.359375 -30.53125 L 15.546875 -30.53125 L 15.546875 0 L 12 0 Z M 12 -30.53125 "/></g></g></g><g fill="#0E1B2C" fill-opacity="1"><g transform="translate(303.401869, 228.380137)"><g><path d="M 20.15625 0.28125 C 16.832031 0.28125 13.816406 -0.457031 11.109375 -1.9375 C 8.410156 -3.425781 6.300781 -5.46875 4.78125 -8.0625 C 3.257812 -10.65625 2.5 -13.566406 2.5 -16.796875 C 2.5 -20.023438 3.257812 -22.9375 4.78125 -25.53125 C 6.300781 -28.125 8.410156 -30.164062 11.109375 -31.65625 C 13.816406 -33.144531 16.832031 -33.890625 20.15625 -33.890625 C 23.488281 -33.890625 26.488281 -33.148438 29.15625 -31.671875 C 31.832031 -30.203125 33.9375 -28.160156 35.46875 -25.546875 C 37.007812 -22.941406 37.78125 -20.023438 37.78125 -16.796875 C 37.78125 -13.566406 37.007812 -10.644531 35.46875 -8.03125 C 33.9375 -5.425781 31.832031 -3.390625 29.15625 -1.921875 C 26.488281 -0.453125 23.488281 0.28125 20.15625 0.28125 Z M 20.15625 -2.875 C 22.8125 -2.875 25.210938 -3.472656 27.359375 -4.671875 C 29.503906 -5.878906 31.179688 -7.546875 32.390625 -9.671875 C 33.609375 -11.796875 34.21875 -14.171875 34.21875 -16.796875 C 34.21875 -19.421875 33.609375 -21.796875 32.390625 -23.921875 C 31.179688 -26.054688 29.503906 -27.722656 27.359375 -28.921875 C 25.210938 -30.117188 22.8125 -30.71875 20.15625 -30.71875 C 17.5 -30.71875 15.09375 -30.117188 12.9375 -28.921875 C 10.78125 -27.722656 9.082031 -26.054688 7.84375 -23.921875 C 6.613281 -21.796875 6 -19.421875 6 -16.796875 C 6 -14.171875 6.613281 -11.796875 7.84375 -9.671875 C 9.082031 -7.546875 10.78125 -5.878906 12.9375 -4.671875 C 15.09375 -3.472656 17.5 -2.875 20.15625 -2.875 Z M 20.15625 -2.875 "/></g></g></g><g fill="#0E1B2C" fill-opacity="1"><g transform="translate(343.673808, 228.380137)"><g/></g></g><g fill="#0E1B2C" fill-opacity="1"><g transform="translate(356.249765, 228.380137)"><g><path d="M 51.59375 -33.59375 L 40.265625 0 L 36.53125 0 L 26.6875 -28.65625 L 16.796875 0 L 13.109375 0 L 1.78125 -33.59375 L 5.421875 -33.59375 L 15.125 -4.703125 L 25.15625 -33.59375 L 28.46875 -33.59375 L 38.359375 -4.5625 L 48.1875 -33.59375 Z M 51.59375 -33.59375 "/></g></g></g><g fill="#0E1B2C" fill-opacity="1"><g transform="translate(408.569677, 228.380137)"><g><path d="M 20.15625 0.28125 C 16.832031 0.28125 13.816406 -0.457031 11.109375 -1.9375 C 8.410156 -3.425781 6.300781 -5.46875 4.78125 -8.0625 C 3.257812 -10.65625 2.5 -13.566406 2.5 -16.796875 C 2.5 -20.023438 3.257812 -22.9375 4.78125 -25.53125 C 6.300781 -28.125 8.410156 -30.164062 11.109375 -31.65625 C 13.816406 -33.144531 16.832031 -33.890625 20.15625 -33.890625 C 23.488281 -33.890625 26.488281 -33.148438 29.15625 -31.671875 C 31.832031 -30.203125 33.9375 -28.160156 35.46875 -25.546875 C 37.007812 -22.941406 37.78125 -20.023438 37.78125 -16.796875 C 37.78125 -13.566406 37.007812 -10.644531 35.46875 -8.03125 C 33.9375 -5.425781 31.832031 -3.390625 29.15625 -1.921875 C 26.488281 -0.453125 23.488281 0.28125 20.15625 0.28125 Z M 20.15625 -2.875 C 22.8125 -2.875 25.210938 -3.472656 27.359375 -4.671875 C 29.503906 -5.878906 31.179688 -7.546875 32.390625 -9.671875 C 33.609375 -11.796875 34.21875 -14.171875 34.21875 -16.796875 C 34.21875 -19.421875 33.609375 -21.796875 32.390625 -23.921875 C 31.179688 -26.054688 29.503906 -27.722656 27.359375 -28.921875 C 25.210938 -30.117188 22.8125 -30.71875 20.15625 -30.71875 C 17.5 -30.71875 15.09375 -30.117188 12.9375 -28.921875 C 10.78125 -27.722656 9.082031 -26.054688 7.84375 -23.921875 C 6.613281 -21.796875 6 -19.421875 6 -16.796875 C 6 -14.171875 6.613281 -11.796875 7.84375 -9.671875 C 9.082031 -7.546875 10.78125 -5.878906 12.9375 -4.671875 C 15.09375 -3.472656 17.5 -2.875 20.15625 -2.875 Z M 20.15625 -2.875 "/></g></g></g><g fill="#0E1B2C" fill-opacity="1"><g transform="translate(448.841616, 228.380137)"><g><path d="M 28.421875 0 L 20.734375 -10.796875 C 19.867188 -10.703125 18.972656 -10.65625 18.046875 -10.65625 L 9.03125 -10.65625 L 9.03125 0 L 5.46875 0 L 5.46875 -33.59375 L 18.046875 -33.59375 C 22.335938 -33.59375 25.695312 -32.566406 28.125 -30.515625 C 30.5625 -28.472656 31.78125 -25.660156 31.78125 -22.078125 C 31.78125 -19.453125 31.113281 -17.234375 29.78125 -15.421875 C 28.457031 -13.617188 26.5625 -12.316406 24.09375 -11.515625 L 32.296875 0 Z M 17.953125 -13.6875 C 21.273438 -13.6875 23.816406 -14.421875 25.578125 -15.890625 C 27.335938 -17.359375 28.21875 -19.421875 28.21875 -22.078125 C 28.21875 -24.796875 27.335938 -26.882812 25.578125 -28.34375 C 23.816406 -29.800781 21.273438 -30.53125 17.953125 -30.53125 L 9.03125 -30.53125 L 9.03125 -13.6875 Z M 17.953125 -13.6875 "/></g></g></g><g fill="#0E1B2C" fill-opacity="1"><g transform="translate(483.545547, 228.380137)"><g><path d="M 15.890625 -15.796875 L 9.03125 -8.828125 L 9.03125 0 L 5.46875 0 L 5.46875 -33.59375 L 9.03125 -33.59375 L 9.03125 -13.296875 L 28.75 -33.59375 L 32.828125 -33.59375 L 18.28125 -18.390625 L 33.84375 0 L 29.609375 0 Z M 15.890625 -15.796875 "/></g></g></g><g fill="#bf912f" fill-opacity="1"><g transform="translate(37.385751, 126.380402)"><g><path d="M 36.875 -9.828125 C 45.132812 -9.828125 50.875 -13.972656 54.09375 -22.265625 L 66.015625 -17.765625 C 63.441406 -11.453125 59.671875 -6.757812 54.703125 -3.6875 C 49.742188 -0.613281 43.800781 0.921875 36.875 0.921875 C 26.363281 0.921875 18.238281 -2.050781 12.5 -8 C 6.757812 -13.957031 3.890625 -22.285156 3.890625 -32.984375 C 3.890625 -43.710938 6.65625 -51.953125 12.1875 -57.703125 C 17.726562 -63.453125 25.757812 -66.328125 36.28125 -66.328125 C 43.945312 -66.328125 50.191406 -64.789062 55.015625 -61.71875 C 59.835938 -58.644531 63.222656 -54.125 65.171875 -48.15625 L 53.109375 -44.859375 C 52.085938 -48.128906 50.082031 -50.734375 47.09375 -52.671875 C 44.113281 -54.609375 40.597656 -55.578125 36.546875 -55.578125 C 30.367188 -55.578125 25.675781 -53.65625 22.46875 -49.8125 C 19.269531 -45.976562 17.671875 -40.367188 17.671875 -32.984375 C 17.671875 -25.460938 19.316406 -19.722656 22.609375 -15.765625 C 25.898438 -11.804688 30.65625 -9.828125 36.875 -9.828125 Z M 36.875 -9.828125 "/></g></g></g><g fill="#bf912f" fill-opacity="1"><g transform="translate(105.98606, 126.380402)"><g><path d="M 54.3125 -25.140625 C 54.3125 -17.003906 52.054688 -10.625 47.546875 -6 C 43.035156 -1.382812 36.789062 0.921875 28.8125 0.921875 C 20.988281 0.921875 14.847656 -1.394531 10.390625 -6.03125 C 5.941406 -10.664062 3.71875 -17.035156 3.71875 -25.140625 C 3.71875 -33.210938 5.941406 -39.5625 10.390625 -44.1875 C 14.847656 -48.8125 21.078125 -51.125 29.078125 -51.125 C 37.273438 -51.125 43.53125 -48.890625 47.84375 -44.421875 C 52.15625 -39.953125 54.3125 -33.523438 54.3125 -25.140625 Z M 40.6875 -25.140625 C 40.6875 -31.109375 39.710938 -35.4375 37.765625 -38.125 C 35.816406 -40.820312 32.984375 -42.171875 29.265625 -42.171875 C 21.347656 -42.171875 17.390625 -36.492188 17.390625 -25.140625 C 17.390625 -19.546875 18.351562 -15.285156 20.28125 -12.359375 C 22.21875 -9.441406 25.015625 -7.984375 28.671875 -7.984375 C 36.679688 -7.984375 40.6875 -13.703125 40.6875 -25.140625 Z M 40.6875 -25.140625 "/></g></g></g><g fill="#bf912f" fill-opacity="1"><g transform="translate(164.011069, 126.380402)"><g><path d="M 39.15625 0 L 39.15625 -28.15625 C 39.15625 -36.96875 36.171875 -41.375 30.203125 -41.375 C 27.046875 -41.375 24.5 -40.019531 22.5625 -37.3125 C 20.632812 -34.613281 19.671875 -31.144531 19.671875 -26.90625 L 19.671875 0 L 6.640625 0 L 6.640625 -38.96875 C 6.640625 -41.65625 6.597656 -43.859375 6.515625 -45.578125 C 6.441406 -47.296875 6.359375 -48.832031 6.265625 -50.1875 L 18.6875 -50.1875 C 18.78125 -49.601562 18.90625 -48.035156 19.0625 -45.484375 C 19.21875 -42.929688 19.296875 -41.175781 19.296875 -40.21875 L 19.484375 -40.21875 C 21.242188 -44.050781 23.453125 -46.832031 26.109375 -48.5625 C 28.773438 -50.300781 31.945312 -51.171875 35.625 -51.171875 C 40.945312 -51.171875 45.03125 -49.53125 47.875 -46.25 C 50.71875 -42.96875 52.140625 -38.175781 52.140625 -31.875 L 52.140625 0 Z M 39.15625 0 "/></g></g></g><g fill="#bf912f" fill-opacity="1"><g transform="translate(222.036077, 126.380402)"><g><path d="M 19.484375 0.828125 C 15.648438 0.828125 12.695312 -0.210938 10.625 -2.296875 C 8.550781 -4.378906 7.515625 -7.539062 7.515625 -11.78125 L 7.515625 -41.375 L 1.15625 -41.375 L 1.15625 -50.1875 L 8.171875 -50.1875 L 12.25 -61.96875 L 20.40625 -61.96875 L 20.40625 -50.1875 L 29.921875 -50.1875 L 29.921875 -41.375 L 20.40625 -41.375 L 20.40625 -15.3125 C 20.40625 -12.863281 20.867188 -11.0625 21.796875 -9.90625 C 22.722656 -8.75 24.160156 -8.171875 26.109375 -8.171875 C 27.128906 -8.171875 28.582031 -8.382812 30.46875 -8.8125 L 30.46875 -0.75 C 27.257812 0.300781 23.597656 0.828125 19.484375 0.828125 Z M 19.484375 0.828125 "/></g></g></g><g fill="#bf912f" fill-opacity="1"><g transform="translate(253.669226, 126.380402)"><g><path d="M 6.640625 -59.234375 L 6.640625 -68.84375 L 19.671875 -68.84375 L 19.671875 -59.234375 Z M 6.640625 0 L 6.640625 -50.1875 L 19.671875 -50.1875 L 19.671875 0 Z M 6.640625 0 "/></g></g></g><g fill="#bf912f" fill-opacity="1"><g transform="translate(280.061085, 126.380402)"><g><path d="M 39.15625 0 L 39.15625 -28.15625 C 39.15625 -36.96875 36.171875 -41.375 30.203125 -41.375 C 27.046875 -41.375 24.5 -40.019531 22.5625 -37.3125 C 20.632812 -34.613281 19.671875 -31.144531 19.671875 -26.90625 L 19.671875 0 L 6.640625 0 L 6.640625 -38.96875 C 6.640625 -41.65625 6.597656 -43.859375 6.515625 -45.578125 C 6.441406 -47.296875 6.359375 -48.832031 6.265625 -50.1875 L 18.6875 -50.1875 C 18.78125 -49.601562 18.90625 -48.035156 19.0625 -45.484375 C 19.21875 -42.929688 19.296875 -41.175781 19.296875 -40.21875 L 19.484375 -40.21875 C 21.242188 -44.050781 23.453125 -46.832031 26.109375 -48.5625 C 28.773438 -50.300781 31.945312 -51.171875 35.625 -51.171875 C 40.945312 -51.171875 45.03125 -49.53125 47.875 -46.25 C 50.71875 -42.96875 52.140625 -38.175781 52.140625 -31.875 L 52.140625 0 Z M 39.15625 0 "/></g></g></g><g fill="#bf912f" fill-opacity="1"><g transform="translate(338.086105, 126.380402)"><g><path d="M 18.921875 -50.1875 L 18.921875 -22.03125 C 18.921875 -13.21875 21.890625 -8.8125 27.828125 -8.8125 C 30.984375 -8.8125 33.523438 -10.164062 35.453125 -12.875 C 37.390625 -15.582031 38.359375 -19.050781 38.359375 -23.28125 L 38.359375 -50.1875 L 51.390625 -50.1875 L 51.390625 -11.21875 C 51.390625 -6.957031 51.515625 -3.21875 51.765625 0 L 39.34375 0 C 38.96875 -4.457031 38.78125 -7.78125 38.78125 -9.96875 L 38.546875 -9.96875 C 36.816406 -6.164062 34.613281 -3.398438 31.9375 -1.671875 C 29.257812 0.0546875 26.082031 0.921875 22.40625 0.921875 C 17.082031 0.921875 13 -0.707031 10.15625 -3.96875 C 7.3125 -7.226562 5.890625 -12.015625 5.890625 -18.328125 L 5.890625 -50.1875 Z M 18.921875 -50.1875 "/></g></g></g><g fill="#bf912f" fill-opacity="1"><g transform="translate(396.111102, 126.380402)"><g><path d="M 18.921875 -50.1875 L 18.921875 -22.03125 C 18.921875 -13.21875 21.890625 -8.8125 27.828125 -8.8125 C 30.984375 -8.8125 33.523438 -10.164062 35.453125 -12.875 C 37.390625 -15.582031 38.359375 -19.050781 38.359375 -23.28125 L 38.359375 -50.1875 L 51.390625 -50.1875 L 51.390625 -11.21875 C 51.390625 -6.957031 51.515625 -3.21875 51.765625 0 L 39.34375 0 C 38.96875 -4.457031 38.78125 -7.78125 38.78125 -9.96875 L 38.546875 -9.96875 C 36.816406 -6.164062 34.613281 -3.398438 31.9375 -1.671875 C 29.257812 0.0546875 26.082031 0.921875 22.40625 0.921875 C 17.082031 0.921875 13 -0.707031 10.15625 -3.96875 C 7.3125 -7.226562 5.890625 -12.015625 5.890625 -18.328125 L 5.890625 -50.1875 Z M 18.921875 -50.1875 "/></g></g></g><g fill="#bf912f" fill-opacity="1"><g transform="translate(454.136099, 126.380402)"><g><path d="M 36.1875 0 L 36.1875 -28.15625 C 36.1875 -36.96875 33.648438 -41.375 28.578125 -41.375 C 25.941406 -41.375 23.796875 -40.03125 22.140625 -37.34375 C 20.492188 -34.65625 19.671875 -31.175781 19.671875 -26.90625 L 19.671875 0 L 6.640625 0 L 6.640625 -38.96875 C 6.640625 -41.65625 6.597656 -43.859375 6.515625 -45.578125 C 6.441406 -47.296875 6.359375 -48.832031 6.265625 -50.1875 L 18.6875 -50.1875 C 18.78125 -49.601562 18.90625 -48.035156 19.0625 -45.484375 C 19.21875 -42.929688 19.296875 -41.175781 19.296875 -40.21875 L 19.484375 -40.21875 C 21.085938 -44.050781 23.085938 -46.832031 25.484375 -48.5625 C 27.878906 -50.300781 30.75 -51.171875 34.09375 -51.171875 C 41.757812 -51.171875 46.414062 -47.519531 48.0625 -40.21875 L 48.328125 -40.21875 C 50.035156 -44.113281 52.078125 -46.910156 54.453125 -48.609375 C 56.835938 -50.316406 59.867188 -51.171875 63.546875 -51.171875 C 68.429688 -51.171875 72.15625 -49.503906 74.71875 -46.171875 C 77.289062 -42.847656 78.578125 -38.082031 78.578125 -31.875 L 78.578125 0 L 65.640625 0 L 65.640625 -28.15625 C 65.640625 -36.96875 63.101562 -41.375 58.03125 -41.375 C 55.488281 -41.375 53.40625 -40.144531 51.78125 -37.6875 C 50.164062 -35.226562 49.28125 -31.832031 49.125 -27.5 L 49.125 0 Z M 36.1875 0 "/></g></g></g></svg>